<?xml version="1.0" encoding="utf-8" ?><svg xmlns="http://www.w3.org/2000/svg" xmlns:xlink="http://www.w3.org/1999/xlink" width="1024" height="1024" viewBox="0 0 1024 1024"><path fill="none" d="M0 0L1024 0L1024 1024L0 1024L0 0Z"/><path fill="#48708D" d="M412.883 502.028C417.74 502.313 449.2 502.744 451.619 501.43C453.684 502.561 455.564 502.11 457.994 501.842C459.698 501.987 462.409 502.341 464.012 502.074C468.884 502.472 473.782 502.454 478.65 502.019C496.892 502.66 518.243 502.103 536.853 502.093L641.088 502.136L798.352 502.12C823.693 502.114 849.55 502.391 874.855 502.081L874.976 747.804C858.248 748.232 840.745 747.975 823.964 747.974L737.436 747.967L478.879 747.983L388.783 747.974C375.479 747.966 357.373 747.361 344.398 747.957C340.414 748.125 335.596 747.302 331.778 748.036L321.975 748.087C319.774 747.982 318.254 747.718 316.183 748.463C314.477 747.624 308.446 747.957 306.325 748.089L301.149 748.025C299.854 747.909 298.586 747.866 297.289 747.812C294.332 747.675 286.782 747.05 284.487 748.051C280.429 747.752 273.5 747.942 269.282 747.933L239.387 747.907L148.855 747.937C149.248 718.793 148.985 689.065 148.992 659.866L149.052 502.147L387.274 502.054L400.883 501.906C402.773 501.971 404.745 502.164 406.558 501.718L412.883 502.028Z"/><path fill="white" d="M358.506 564.226C377.467 562.883 393.95 577.11 395.393 596.063C396.836 615.016 382.698 631.574 363.753 633.119C344.665 634.674 327.953 620.405 326.499 601.309C325.045 582.213 339.403 565.578 358.506 564.226Z"/><path fill="#48708D" d="M356.585 578.701C363.793 577.116 371.295 579.538 376.215 585.038C381.136 590.538 382.711 598.262 380.338 605.25C377.964 612.238 372.01 617.405 364.758 618.77C353.778 620.837 343.171 613.708 340.938 602.76C338.705 591.812 345.672 581.099 356.585 578.701Z"/><path fill="white" d="M749.486 562.213C754.929 566.898 771.345 597.992 776.834 606.557C785.845 592.059 793.368 576.356 802.196 562.204C804.609 570.036 806.805 588.55 807.917 597.366C809.194 607.486 811.201 621.572 811.656 631.482L798.111 631.479C797.518 629.217 797.013 624.44 796.685 621.905C795.829 614.845 795.042 607.777 794.326 600.701C788.17 612.027 783.477 621.295 776.662 632.3C771.807 626.485 762.139 608.221 758.003 600.683C757.431 611.382 756.314 620.397 754.834 631.033L741.405 631.113C741.656 619.612 743.974 604.176 745.513 592.682C746.821 582.912 747.95 571.789 749.486 562.213Z"/><path fill="white" d="M569.093 565.756C579.283 565.332 591.752 564.814 601.374 568.493C611.609 572.406 614.671 584.353 609.702 593.636C606.485 599.647 602.698 601.484 596.552 603.465C604.438 612.605 610.566 621.003 617.293 630.953C611.729 631.063 606.163 631.051 600.6 630.918C593.849 623.376 585.707 609.795 580.02 600.955C580.373 610.451 580.248 621.722 580.053 631.174L566 631.068L565.879 589.523C565.861 583.245 565.53 572.583 566.112 566.575C567.116 565.64 567.373 565.932 569.093 565.756Z"/><path fill="#48708D" d="M580.467 576.893C590.741 576.618 602.29 579.413 594.572 591.894C589.998 594.815 585.754 594.58 580.499 594.723L580.467 576.893Z"/><path fill="white" d="M413.373 565.739C429.56 565.567 456.788 564.759 450.641 592.368C449.273 598.511 443.055 601.903 437.651 604.387C443.977 612.785 450.551 622.367 456.439 631.101C451.277 631.033 442.683 632.41 439.184 629.451C435.666 624.954 425.959 607.244 423.153 606.02L422.408 606.441C420.814 610.052 421.285 626.159 421.274 631.119L406.996 631.165C406.987 609.241 406.637 588.029 406.911 565.995L413.373 565.739Z"/><path fill="#48708D" d="M421.457 577.945C431.515 577.055 442.221 581.654 434.476 592.756C430.476 595.448 426.104 595.408 421.477 595.541L421.457 577.945Z"/><path fill="white" d="M261.005 565.754C265.643 565.519 269.967 565.583 274.599 565.634C275.34 572.538 275.021 584.355 275.012 591.654C283.877 591.741 292.742 591.752 301.606 591.686L301.557 565.96C306.785 565.741 311.15 565.72 316.351 565.799C316.428 572.696 317.15 628.267 315.977 631.408L314.625 631.57C312.245 631.594 304.654 631.894 302.755 630.831C301.21 626.734 301.723 609.561 301.688 603.948L274.986 603.879C275.043 613.058 274.995 622.237 274.843 631.415L260.554 631.402C260.465 624.784 260.027 567.604 261.005 565.754Z"/><path fill="white" d="M703.579 562.406C706.984 566.926 713.357 580.456 716.09 586.278C723.109 601.228 729.953 616.13 737.173 631.02L721.609 631.347C719.699 627.63 717.884 623.642 716.088 619.851L704.424 619.986L690.74 619.941C689.063 623.104 687.263 627.744 685.834 631.136L670.233 630.977C681.049 607.976 692.166 585.117 703.579 562.406Z"/><path fill="#48708D" d="M703.526 589.338C706.17 593.866 709.199 603.201 710.979 608.415L704.505 608.213L695.991 608.332C698.004 602.787 700.985 594.561 703.526 589.338Z"/><path fill="white" d="M631.01 566.236C642.512 566.013 654.777 566.245 666.338 566.28C666.43 570.41 666.302 574.175 666.152 578.308L640.02 578.296L640.036 591.997L664.43 591.993L664.532 603.836C656.429 603.716 648.323 603.774 640.222 604.011L640.082 612.084L640.206 618.462L666.457 618.505L666.501 631.098C652.819 631.218 639.136 631.233 625.454 631.142C624.964 609.936 625.399 587.766 625.509 566.484L631.01 566.236Z"/><path fill="white" d="M479.794 565.566C489.769 564.707 493.83 565.796 501.992 571.233C500.813 574.598 499.15 578.464 497.806 581.818C492.665 579.306 483.881 574.33 479.194 579.915C474.607 585.198 486.109 590.793 489.918 592.425C504.491 598.672 511.078 612.039 500.139 625.57C495.819 630.913 487.881 631.895 481.218 632.086C473.419 631.985 466.906 628.815 460.994 623.973C462.226 620.582 465.109 615.088 466.769 611.684C485.486 630.249 500.551 610.923 480.385 603.801C458.674 596.134 458.056 572.812 479.794 565.566Z"/><path fill="white" d="M509.391 565.629C525.371 565.348 541.919 565.689 557.939 565.861L557.893 577.878C552.484 578.043 546.587 577.972 541.143 578.006C541.042 590.254 541.004 602.502 541.031 614.75L541.002 631.321L526.744 631.326C526.49 613.605 526.837 596.058 526.495 578.191C520.964 578.019 514.987 578.078 509.423 578.041L509.391 565.629Z"/><path fill="white" d="M222.354 565.748L252.129 565.717C252.256 569.574 252.134 573.805 252.101 577.691C246.71 577.936 240.788 577.898 235.349 577.963C235.474 595.811 235.495 613.658 235.412 631.506L221.15 631.457C220.582 614.42 221.014 595.057 220.983 577.889L204.75 577.826C204.629 573.948 204.63 569.906 204.573 566.012C210.427 565.791 216.483 565.808 222.354 565.748Z"/><path fill="white" d="M611.769 682.719C618.195 682.516 631.363 681.746 626.182 691.813L625.814 692.521C626.965 697.465 631.8 695.959 627.447 703.054C621.88 706.718 618.34 705.861 611.748 705.426C611.445 702.305 610.764 684.798 611.769 682.719Z"/><path fill="#48708D" d="M616.416 695.507C619.529 695.407 623.06 694.965 624.762 697.966C624.677 699.72 624.219 700.003 623.078 701.345C620.06 701.931 617.782 702.369 615.872 699.584C615.575 697.616 615.727 697.454 616.416 695.507Z"/><path fill="#48708D" d="M616.84 686.516C619.545 686.644 621.409 686.746 622.713 689.393C621.997 691.245 622.533 690.436 620.875 691.788C619.463 691.87 618.98 691.802 617.598 691.673C615.698 690.356 616.271 691.188 615.465 689.357C615.868 687.271 615.449 688.193 616.84 686.516Z"/><path fill="white" d="M278.492 682.976C283.642 682.858 290.508 682.49 294.317 686.877C298.02 691.142 293.526 695.037 290.363 697.657C291.81 700.44 294.282 702.466 294.671 704.648C293.797 706.128 293.827 705.711 291.722 706.474C289.418 704.228 287.356 699.594 284.395 698.441C283.568 700.977 282.495 705.022 280.484 706.614L279.627 706.214C277.911 702.646 278.456 687.887 278.492 682.976Z"/><path fill="#48708D" d="M283.01 686.902C288.044 687.28 291.356 687.46 290.087 693.603C287.245 694.17 285.981 694.9 283.636 693.125C282.732 691.341 282.998 688.976 283.01 686.902Z"/><path fill="white" d="M594.768 689.604C595.374 689.632 594.968 689.56 595.827 690.245C597.291 696.105 597.221 708.968 590.704 712.432C588.244 713.74 581.538 711.389 580.444 708.459L580.964 707.687C583.381 707.024 584.905 707.517 587.389 707.941C589.413 707.725 591.223 706.92 591.958 704.895C590.076 703.51 584.691 704.99 582.634 703.942C579.457 702.092 578.865 698.305 580.18 695.101C583.43 687.188 589.108 692.118 594.768 689.604Z"/><path fill="#48708D" d="M586.889 693.863C588.964 693.337 591.071 694.599 591.586 696.677C592.102 698.754 590.83 700.855 588.75 701.361C586.684 701.863 584.601 700.601 584.088 698.538C583.576 696.474 584.828 694.385 586.889 693.863Z"/><path fill="white" d="M534.6 689.79C535.582 689.441 537.154 689.529 537.99 689.867C541.495 691.284 542.311 688.825 546.009 689.469C550.193 692.061 552.02 705.036 546.404 705.973L545.789 705.467C544.41 701.847 546.169 696.331 543.582 694.009C541.727 694.357 542.537 693.973 541.092 695.268C540.174 697.638 540.466 700.499 540.494 703.125L540.42 704.507C539.302 705.84 539.984 705.414 538.315 705.849C533.563 703.843 539.511 695.615 534.442 693.97C530.429 695.642 534.511 704.591 530.313 706.026C529.481 705.631 528.695 705.501 528.616 704.863C528.278 702.142 527.394 693.299 528.511 691.105C531.231 689.971 532.135 690.735 534.6 689.79Z"/><path fill="white" d="M650.565 690.05C654.753 689.706 658.171 689.949 660.526 694.024C661.628 695.913 661.852 698.189 661.139 700.257C660.094 703.305 658.291 704.222 655.584 705.579C651.201 705.829 647.182 705.28 645.036 700.85C644.195 699.141 644.088 697.163 644.741 695.374C645.808 692.382 647.904 691.364 650.565 690.05Z"/><path fill="#48708D" d="M652.04 693.698C653.489 693.339 655.019 693.796 656.035 694.89C657.05 695.985 657.39 697.545 656.922 698.963C656.455 700.381 655.253 701.433 653.786 701.709C651.605 702.12 649.493 700.721 649.02 698.552C648.548 696.384 649.886 694.232 652.04 693.698Z"/><path fill="white" d="M515.252 689.285C516.392 689.347 523.857 690.425 524.578 691.053C525.191 693.428 525.475 695.876 525.424 698.328C525.372 700.648 525.167 703.68 523.43 705.346C521.463 705.757 522.067 705.626 519.899 704.892C510.651 709.191 505.774 697.076 515.252 689.285Z"/><path fill="#48708D" d="M516.746 693.258C522.941 694.581 521.252 699.177 518.231 702.672C512.441 700.562 513.097 697.025 516.746 693.258Z"/><path fill="white" d="M363.035 682.723C365.709 682.607 370.257 682.565 372.21 684.577C372.298 686.06 372.441 685.326 371.298 686.728C369.068 687.626 366.14 687.206 363.418 687.343C362.106 688.397 362.679 687.766 361.95 689.589C363.296 692.97 368.053 690.832 370.506 693.205L370.319 694.801C367.95 696.58 365.839 694.792 363.029 696.71C362.065 698.25 362.496 699.742 362.676 701.645C365.39 701.529 369.068 700.981 371.148 702.494C371.298 704.076 371.452 704.083 370.668 705.411C367.411 706.086 361.646 705.821 358.122 705.79C358.057 701.381 357.617 687.254 358.322 683.495C359.668 682.542 361.293 682.763 363.035 682.723Z"/><path fill="white" d="M456.002 683.039C459.438 682.751 463.793 682.523 465.306 686.271C463.783 688.182 459.592 686.433 456.387 688.211C456.002 692.691 467.934 694.44 466.686 701.558C465.017 704.047 462.681 704.935 459.901 705.89C456.933 705.884 452.549 704.619 450.671 702.22C452.307 699.819 456.841 702.183 460.879 700.547L461.133 699.806C457.88 694.505 444.399 691.147 456.002 683.039Z"/><path fill="white" d="M664.612 679.819C666.112 679.821 666.694 679.696 668.031 680.399C670.133 683.296 669.352 691.148 669.309 694.945C671.343 692.64 673.48 689.943 676.884 690.762L677.161 691.816C676.434 693.86 674.671 695.157 673.036 696.707C674.821 698.967 676.805 701.29 678.647 703.523L679.436 704.382L679.368 705.534C674.747 705.571 672.049 702.059 669.253 698.823C669.029 700.838 668.962 703.754 667.609 705.153C663.783 704.92 664.407 698.35 664.407 695.37C664.407 690.197 664.529 684.994 664.612 679.819Z"/><path fill="white" d="M396.109 689.552C400.287 689.295 406.002 690.961 406.675 696.249C407.323 701.338 397.8 697.193 395.088 699.817C396.404 703.455 399.695 702.198 402.262 701.313C403.75 701.688 403.769 701.59 404.946 702.525L404.897 703.657C397.612 711.259 381.846 698.615 396.109 689.552Z"/><path fill="white" d="M687 690.011C691.822 689.473 698.272 692.688 697.823 697.561C696.04 699.576 689.922 698.993 686.844 699.182L686.52 700.24C687.217 701.876 686.667 701.262 688.251 702.125C690.826 702.277 691.016 702.107 693.506 701.174C694.718 701.831 694.654 701.78 695.559 702.82C695.387 703.767 695.221 704.651 694.152 705.094C683.633 709.455 675.199 696.695 687 690.011Z"/><path fill="#50788F" d="M687.361 693.205C689.514 693.231 690.945 693.46 692.314 695.174L691.872 696.054C690.118 696.135 688.363 696.366 686.716 695.839L686.376 694.987L687.361 693.205Z"/><path fill="white" d="M498.05 689.52C502.427 689.319 508.617 692.375 508.828 696.963C507.113 700.622 499.138 697.939 496.742 700.133C498.77 701.964 502.8 701.936 505.443 702.034L506.234 702.513L506.347 703.344C504.915 704.899 503.273 705.377 501.303 706.227C491.163 703.773 488.821 694.872 498.05 689.52Z"/><path fill="white" d="M566.033 696.268L566.072 696.75C566.267 699.369 566.522 703.666 564.291 705.51C560.643 704.206 560.838 694.581 562.196 691.393C564.369 689.532 563.985 690.619 565.673 690.539C569.367 690.365 570.834 687.832 574.304 691.182C577.848 694.603 577.635 701.168 574.694 704.641L573.568 704.975C571.276 702.86 571.997 699.457 572.16 696.51C569.538 697.231 568.513 697.15 566.033 696.268Z"/><path fill="#50788F" d="M566.033 696.268C566.946 694.727 566.866 694.596 568.527 693.816C570.787 694.045 571.033 694.4 572.16 696.51C569.538 697.231 568.513 697.15 566.033 696.268Z"/><path fill="white" d="M410.042 689.478C413.151 689.654 417.731 689.733 420.501 689.792C424.801 689.884 426.188 702.542 421.784 705.038L420.814 704.678C419.809 703.278 419.947 702.343 419.827 700.589L419.783 699.874C419.736 697.977 419.878 696.19 419.058 694.505C417.594 693.283 418.419 693.646 416.465 693.447C413.05 696.129 415.36 701.506 412.769 705.282C411.326 705.781 412.082 705.737 410.43 705.098C409.319 703.061 409.944 692.519 410.042 689.478Z"/><path fill="white" d="M299.153 689.48C299.632 689.605 302.449 690.349 302.558 690.461C305.102 693.061 301.764 700.015 306.094 702.422C312.35 701.942 307.314 690.866 311.719 689.495C313.791 690.468 313.681 691.513 313.89 693.57C313.892 698.064 313.281 707.652 305.893 706.741C298.149 705.786 298.81 695.457 299.153 689.48Z"/><path fill="white" d="M319.852 689.57C322.543 689.26 325.956 688.768 327.388 691.618L326.73 692.637C324.931 693.635 322.568 693.216 320.421 693.106C323.599 696.078 328.94 697.761 328.791 702.346C327.898 704.179 327.248 704.447 325.555 705.726C323.122 706.383 318.086 706.588 317.308 703.517L318.134 702.598C320.432 701.486 322.913 701.914 325.564 702.033C321.202 698.726 312.786 695.659 319.852 689.57Z"/><path fill="white" d="M470.204 685.52C471.691 685.543 472.204 685.429 473.576 685.987C473.903 687.808 473.841 687.692 474.932 689.181C476.365 689.624 476.656 689.577 478.112 689.587L478.553 689.587L479.249 690.341C478.605 692.639 471.514 695.276 475.451 701.21C478.318 702.574 478.231 702.149 478.494 705.055C476.25 705.804 474.843 706.235 472.684 705.463C469.666 702.843 471.221 698.715 469.886 693.842C469.069 693.357 468.381 692.992 467.535 692.558C467.096 690.906 467.078 691.702 467.564 690.082C470.75 688.652 470.282 688.824 470.204 685.52Z"/><path fill="white" d="M373.479 690.008C379.655 690.199 379.868 693.247 381.872 698.61C383.152 695.851 385.194 690.488 388.647 690.067L389.09 691.063C389.026 693.573 387.96 695.083 386.795 697.35C385.017 701.41 383.846 703.895 381.647 707.717C379.611 703.451 374.855 694.075 373.479 690.008Z"/><path fill="white" d="M334.326 685.266C335.799 685.437 336.227 685.378 337.559 686.038C338.407 690.706 339.425 688.552 341.585 690.002C341.577 692.654 336.673 696.608 337.992 699.767C339.419 703.186 341.131 700.151 342.492 705.135C340.732 706.02 338.1 706.344 336.344 705.315C333.556 702.376 334.654 697.663 333.663 693.977C333.504 693.385 332.205 693.582 331.62 691.335C333.136 689.045 333.958 688.096 334.326 685.266Z"/><path fill="white" d="M429.643 684.866C431.143 685.297 431.226 685.229 432.473 686.113C432.507 687.888 432.502 688.434 433.884 689.604C435.16 689.724 435.235 689.656 436.381 690.176C436.341 693.642 431.728 695.681 433.23 700.794C435.807 703.486 435.834 701.268 437.621 704.941C427.344 708.717 429.979 699.694 428.354 693.79C428.305 693.611 427.213 693.779 426.478 692.512C426.977 689.371 429.031 689.091 429.643 684.866Z"/><path fill="white" d="M638.247 689.817C640.477 689.154 642.006 689.699 642.252 692.168C641.024 694.2 639.066 694.089 636.77 696.139C635.797 698.929 635.882 701.895 635.744 704.888L634.93 705.525C633.264 705.514 633.968 705.779 632.715 704.792C631.243 701.479 631.607 693.94 632.309 690.408C634.504 689.489 635.392 691.116 638.247 689.817Z"/><path fill="white" d="M488.866 689.777C489.994 689.659 489.424 689.609 490.554 690.262C490.41 692.982 488.211 694.639 486.25 696.574C485.981 700.446 487.224 704.321 483.328 706.121C480.782 703.296 480.864 693.73 482.495 690.447C484.083 689.443 486.088 690.904 488.866 689.777Z"/><path fill="white" d="M706.2 689.753L707.81 689.189L708.446 689.739L708.48 691.13C707.144 693.794 706.064 694.487 703.834 696.362C703.746 700.086 704.139 703.473 702.141 706.473L700.751 705.568C699.496 703.078 698.708 692.191 701.17 690.241C703.39 690.343 704.118 690.457 706.2 689.753Z"/><path fill="white" d="M553.655 689.986C555.654 690.048 555.359 689.734 556.737 690.692C558.64 694.605 557.836 701.722 557.219 706.064L554.921 705.558C552.131 703.678 552.584 692.757 553.655 689.986Z"/><path fill="white" d="M554.1 683.31C555.28 682.505 556.885 682.773 557.739 683.918C558.593 685.063 558.394 686.677 557.286 687.579C556.527 688.198 555.489 688.35 554.584 687.976C553.679 687.602 553.051 686.761 552.95 685.787C552.85 684.813 553.291 683.862 554.1 683.31Z"/><path fill="#184279" d="M437.55 275.563C444.222 264.152 452.915 245.253 459.178 232.736L501.711 147.11L514.41 120.98C516.089 117.517 523.287 101.373 526.711 100.595C557.43 93.6113 588.973 89.5743 619.975 83.8594C630.062 82.0001 640.574 80.0651 650.673 78.6302C656.731 82.4245 659.905 85.8408 663.498 91.9C657.9 103.785 647.297 118.668 639.883 129.801C628.126 147.526 616.483 165.326 604.955 183.201C616.696 181.682 628.59 179.406 640.395 177.759C641.68 182.306 642.968 188.059 643.821 192.643C639.322 200.763 632.86 210.359 627.775 218.253C615.563 236.96 603.244 255.597 590.816 274.162C605.231 273.642 617.318 274.697 630.962 279.787C644.558 284.86 664.468 296.159 670.742 309.909C667.506 315.132 657.968 325.076 653.464 329.875C646.41 337.391 638.995 345.628 631.776 352.896C624.705 346.059 605.741 330.8 593.286 334.598C592.615 334.803 592.667 335.281 592.463 335.948C593.81 339.237 600.646 342.18 603.791 343.582C627.889 354.328 652.188 367.421 656.161 396.263C658.402 412.528 654.905 428.359 644.848 441.647C618.359 476.645 564.21 479.638 528.008 459.261C521.818 455.779 516.351 451.53 510.663 447.184C500.3 465.121 489.476 484.445 478.65 502.019C473.782 502.454 468.884 502.472 464.012 502.074C462.409 502.341 459.698 501.987 457.994 501.842C455.564 502.11 453.684 502.561 451.619 501.43C449.2 502.744 417.74 502.313 412.883 502.028L406.558 501.718C404.745 502.164 402.773 501.971 400.883 501.906L387.274 502.054C392.935 491.271 398.841 480.618 404.986 470.103C388.825 470.007 373.146 469.184 357.205 469.019C359.109 455.954 363.573 440.145 366.451 427.068C372.664 398.829 379.765 370.544 385.826 342.294C371.16 342.01 355.711 342.184 341.018 342.34C345.254 321 351.729 297.059 356.674 275.386L437.55 275.563Z"/><path fill="#F7D09D" d="M539.562 119.741C549.244 117.904 560.016 116.597 569.888 114.935C589.898 111.449 609.925 108.069 629.97 104.795C624.29 114.259 616.775 124.947 610.587 134.235L580.906 178.856C575.437 186.966 567.167 197.948 562.417 206.628C561.873 207.623 562.535 208.697 562.966 209.626C566.434 210.824 603.835 203.829 610.819 202.797C595.509 229.172 576.087 256.523 559.569 282.282C546.224 288.93 536.997 296.139 530.058 309.646C519.431 330.334 520.505 350.249 530.298 370.753L451.619 501.43C449.2 502.744 417.74 502.313 412.883 502.028C418.558 489.518 428.368 473.359 435.196 461.218L464.933 407.144C469.571 398.745 474.25 390.319 478.799 381.869C480.209 379.25 483.315 374.229 481.042 371.709C476.337 371.548 452.086 387.05 445.72 390.407C452.326 373.493 463.835 351.892 471.753 334.865C481.465 334.292 496.967 334.842 507.27 334.752C510.872 314.882 514.992 295.109 519.627 275.454C502.663 274.739 480.668 275.434 463.346 275.482C466.534 267.654 471.898 257.535 475.706 249.894L495.574 209.652C509.86 180.488 524.402 147.988 539.562 119.741Z"/><path fill="white" d="M367.501 282.505C383.326 282.07 400.036 282.347 415.953 282.302L511.039 282.487C508.151 299.293 504.766 312.293 501.134 328.423L462.17 328.464C462.995 330.722 463.907 333.443 464.857 335.61C459.011 348.079 437.905 386.929 437.91 398.14L438.441 399.133C442.986 399.217 468.437 383.448 473.411 380.416C462.23 403.503 447.284 428.567 434.759 451.175C428.314 462.918 421.767 474.605 415.118 486.234C412.589 490.756 409.178 497.746 406.558 501.718C404.745 502.164 402.773 501.971 400.883 501.906C404.249 494.316 409.961 485.597 414.057 478.28C425.972 456.998 439.421 436.492 450.8 414.874C453.961 408.869 459.886 398.859 462.182 392.852C455.795 395.509 443.233 402.528 436.861 406.29C433.848 416.762 430.998 427.28 428.313 437.841C426.681 444.185 425.109 451.436 422.924 457.546C405.813 457.145 388.697 457.002 371.581 457.118L401.826 328.92L356.71 328.997C360.636 313.869 364.019 297.811 367.501 282.505Z"/><path fill="#184279" d="M371.766 287.48C386.957 287.789 402.665 287.522 417.904 287.529L505.069 287.549C503.018 299.387 500.171 311.707 497.452 323.437C482.24 323.479 466.54 323.344 451.372 323.771C443.429 353.642 436.814 384.226 429.076 414.424C426.022 427.524 422.598 439.432 419.031 452.351L377.65 452.398C386.956 409.773 398.25 366.529 408.453 323.985C393.515 323.806 378.574 323.79 363.635 323.936C366.141 311.644 368.568 299.625 371.766 287.48Z"/><path fill="white" d="M375.719 292.679C416.512 292.678 458.363 292.234 499.07 292.825C497.182 301.216 495.561 310.044 493.906 318.512C479.597 318.496 460.433 318.992 446.348 318.146C439.471 348.291 432.3 378.369 424.836 408.374C421.554 419.979 417.792 435.284 415.228 447.008L384.069 446.932C388.967 428.909 393.533 408.651 397.944 390.399L415.366 318.531C400.312 318.82 385.255 318.853 370.2 318.631C371.078 311.9 374.157 299.694 375.719 292.679Z"/><path fill="white" d="M457.994 501.842C465.724 489.736 473.447 476.158 480.833 463.743L513.701 409.079C517.578 402.655 521.423 396.213 525.236 389.751C527.284 386.211 531.202 377.506 534.817 376.161C537.054 379.36 518.001 408.887 515.294 413.538L483.588 468.31C477.232 479.237 469.99 491.053 464.012 502.074C462.409 502.341 459.698 501.987 457.994 501.842Z"/><path fill="white" d="M590.633 281.205C592.003 281.097 593.375 281.02 594.748 280.977C620.556 280.196 639.796 288.109 658.394 305.684C652.457 313.756 635.847 331.839 628.696 339.618C621.344 332.045 608.485 325.261 597.683 324.834C592.814 324.642 580.111 326.254 581.385 332.983C583.801 345.737 605.535 350.599 615.227 356.52C622.298 360.839 628.837 363.802 634.672 369.778C655.64 390.249 652.285 423.304 632.013 443.024C615.33 459.252 598.007 463.363 575.284 463.455C546.426 461.617 533.309 454.751 511.403 436.172C521.029 423.891 532.419 409.071 542.617 397.402C554.923 408.547 564.875 418.88 582.656 417.8C586.802 417.548 597.912 414.71 595.8 408.982C591.277 396.721 571.12 391.881 560.857 385.309C556.297 382.389 551.884 380.547 547.818 376.836C524.522 359.557 525.417 323.463 543.054 302.489C554.265 289.157 573.072 282.63 590.633 281.205Z"/><path fill="#184279" d="M593.846 285.703C593.97 285.677 594.095 285.651 594.219 285.625C615.523 284.318 635.239 292.602 651.298 305.546C645.539 313.899 635.419 325.222 628.648 332.887C619.883 326.559 610.165 320.756 599.095 319.709C591.395 318.98 575.837 322.822 576.368 332.453C577.246 348.37 600.787 353.96 612.097 360.406C618.939 364.306 625.566 367.593 631.154 373.324C650.496 391.91 646.445 422.533 628.086 440.318C612.224 455.684 593.194 458.659 571.837 458.447C549.382 456.174 535.34 449.89 517.829 435.213C522.493 427.797 536.786 411.563 543.089 404.28C544.833 406.08 546.651 407.809 548.536 409.461C558.867 418.446 569.943 423.158 583.745 422.879C592.067 422.711 601.608 416.915 600.282 407.747C598.351 394.397 576.867 388.642 566.888 383.052C561.135 380.377 556.61 377.269 551.436 373.6C529.278 357.886 530.806 326.662 546.052 306.445C556.855 292.12 576.058 287.633 593.846 285.703Z"/><path fill="white" d="M596.334 290.713C611.632 289.471 632.483 297.016 644.452 306.394C639.507 312.666 633.54 319.462 628.36 325.647C614.049 316.339 592.264 308.342 577.167 320.368C569.567 326.422 569.845 339.18 576.195 346.027C580.773 351.195 587.07 354.024 593.065 357.106C610.162 365.895 633.214 373.791 637.757 395.048C641.36 411.904 633.973 429.127 620.86 439.806C606.522 451.484 587.509 454.824 569.563 453.046C555.094 452.383 536.128 443.436 524.941 434.364C530.863 427.102 536.783 420.305 542.499 412.842C556.066 423.632 566.475 429.949 584.524 428.631C596.574 427.751 607.637 419.481 605.58 406.467C603.215 391.497 583.852 385.972 572.388 379.87C565.767 376.346 559.441 373.354 553.585 368.565C535.03 354.775 536.959 326.549 550.418 309.807C561.149 296.458 579.831 292.293 596.334 290.713Z"/><path fill="white" d="M646.605 91.1887C648.055 91.6189 647.944 91.6453 648.952 92.8082C649.237 96.8306 588.197 185.447 580.761 197.28C597.521 194.543 615.331 192.126 631.896 188.827C625.71 199.745 613.484 217.235 606.237 228.46C598.759 240.089 591.189 251.661 583.53 263.172C580.51 267.683 577.017 273.229 573.476 277.32C572.716 278.198 568.989 279.456 567.723 279.912C580.081 260.058 593.802 240.737 606.026 220.766C610.727 213.087 617.444 203.101 621.147 195.163C605.69 198.636 586.268 201.479 570.499 203.745C576.525 194.165 583.837 184.211 590.186 174.661L639.033 100.833L640.771 97.685C622.892 100.125 605.676 103.425 587.911 106.397L536.052 114.751L481.764 225.355L467.065 255.014C464.715 259.764 458.175 275.472 453.079 276.543L452.519 275.792C452.712 270.355 468.348 241.489 471.663 234.851L501.871 173.236L520.795 134.432C524.069 127.649 529.291 116.042 533.113 110.094C547.315 108.712 563.983 105.318 578.228 102.865L646.605 91.1887Z"/><path fill="white" d="M545.595 386.853C553.251 389.151 582.757 404.579 586.995 410.839C579.853 411.761 572.306 410.942 565.842 407.664C558.134 403.755 548.373 395.217 545.595 386.853Z"/><path fill="#184279" d="M284.487 748.051C286.782 747.05 294.332 747.675 297.289 747.812C298.586 747.866 299.854 747.909 301.149 748.025L306.325 748.089C308.446 747.957 314.477 747.624 316.183 748.463C318.254 747.718 319.774 747.982 321.975 748.087L331.778 748.036C335.596 747.302 340.414 748.125 344.398 747.957C330.918 770.708 316.142 791.105 302.173 813.429L251.927 893.173C243.595 906.321 235.278 919.575 226.834 932.652C224.844 935.144 222.323 939.622 219.493 941.083C210.661 945.642 197.375 936.102 200.739 926.29C202.752 920.415 206.864 912.98 209.791 907.048C214.996 896.52 220.109 885.946 225.128 875.328C245.549 833.201 265.338 790.771 284.487 748.051Z"/><path fill="#184279" d="M306.325 748.089C308.446 747.957 314.477 747.624 316.183 748.463C318.254 747.718 319.774 747.982 321.975 748.087L331.778 748.036C326.504 757.453 319.001 768.042 313.034 777.214C310.189 781.586 303.928 791.48 300.944 795.108C298.596 794.507 297.332 796.137 294.065 796.947C288.437 807.324 278.874 820.813 272.412 830.749C265.837 840.859 258.687 852.276 251.759 862.009C267.324 823.632 283.792 785.626 301.149 748.025L306.325 748.089Z"/><path fill="#F7D09D" d="M321.975 748.087L331.778 748.036C326.504 757.453 319.001 768.042 313.034 777.214C310.189 781.586 303.928 791.48 300.944 795.108C298.596 794.507 297.332 796.137 294.065 796.947C295.285 794.231 297.112 791.051 298.714 788.53C307.119 775.304 314.591 761.906 321.975 748.087Z"/><path fill="white" d="M306.325 748.089C308.446 747.957 314.477 747.624 316.183 748.463C308.779 764.656 296.774 782.179 287.771 797.937C286.783 797.051 286.329 795.915 285.705 794.723C292.734 779.248 299.608 763.702 306.325 748.089Z"/><path fill="#F7D09D" d="M285.705 794.723C286.329 795.915 286.783 797.051 287.771 797.937C285.375 802.834 279.954 810.87 276.427 814.911C279.393 807.808 282.326 801.658 285.705 794.723Z"/><path fill="white" d="M297.289 747.812C298.586 747.866 299.854 747.909 301.149 748.025C283.792 785.626 267.324 823.632 251.759 862.009C258.687 852.276 265.837 840.859 272.412 830.749C278.874 820.813 288.437 807.324 294.065 796.947C297.332 796.137 298.596 794.507 300.944 795.108C294.526 805.431 287.607 815.598 281.052 825.881L233.99 899.934C228.437 908.623 223.216 917.555 217.837 926.351C216.719 928.179 215.477 930.066 213.237 929.951L212.551 929.137C212.818 925.662 223.993 904.566 225.975 900.408L259.652 829.222C272.296 802.195 284.243 774.565 297.289 747.812Z"/></svg>